<svg xmlns="http://www.w3.org/2000/svg" width="870" height="252" fill="none"><rect width="252" height="252" fill="#D14306" rx="75"/><path stroke="#fff" stroke-linecap="round" stroke-linejoin="round" stroke-width="15" d="M126 192.333c-28.287 0-42.427 0-51.213-9.766C66 172.813 66 157.093 66 125.667c0-31.427 0-47.14 8.787-56.907C83.573 58.993 97.72 59 126 59s42.427 0 51.213 9.76C186 78.533 186 94.24 186 125.667c0 31.426 0 47.14-8.787 56.9-8.786 9.76-22.933 9.766-51.213 9.766Z"/><path stroke="#fff" stroke-linecap="round" stroke-linejoin="round" stroke-width="15" d="M99.333 62.333v48.84c0 8.314 0 12.467 2.574 13.96 4.993 2.88 14.346-6.733 18.793-9.626 2.58-1.68 3.867-2.52 5.3-2.52 1.433 0 2.72.84 5.3 2.52 4.447 2.893 13.8 12.506 18.793 9.626 2.574-1.486 2.574-5.646 2.574-13.96v-48.84"/><path fill="#4A4A4A" d="M362.592 173.78c-7.253 0-12.971-1.92-17.152-5.76-4.181-3.84-6.272-9.003-6.272-15.488 0-6.912 2.304-12.245 6.912-16 4.608-3.755 11.136-5.632 19.584-5.632H383.2v-6.016c0-3.413-1.109-6.059-3.328-7.936-2.219-1.963-5.248-2.944-9.088-2.944-3.499 0-6.4.768-8.704 2.304-2.304 1.536-3.669 3.627-4.096 6.272h-15.616c.768-6.656 3.755-11.947 8.96-15.872 5.205-3.925 11.861-5.888 19.968-5.888 8.619 0 15.403 2.176 20.352 6.528 5.035 4.267 7.552 10.069 7.552 17.408V172.5h-15.488v-12.288h-2.56l2.56-3.456c0 5.205-1.92 9.344-5.76 12.416-3.84 3.072-8.96 4.608-15.36 4.608Zm5.248-12.032c4.523 0 8.192-1.152 11.008-3.456 2.901-2.304 4.352-5.291 4.352-8.96v-8.576h-17.28c-3.243 0-5.845.939-7.808 2.816-1.963 1.877-2.944 4.352-2.944 7.424 0 3.328 1.109 5.973 3.328 7.936 2.304 1.877 5.419 2.816 9.344 2.816Zm52.942 10.752v-70.4h15.104v13.44h3.968l-4.736 8.192c0-7.595 1.707-13.312 5.12-17.152 3.413-3.84 8.448-5.76 15.104-5.76 7.595 0 13.568 2.347 17.92 7.04 4.352 4.693 6.528 11.179 6.528 19.456v5.12h-16.768v-3.968c0-4.523-1.195-8.021-3.584-10.496-2.304-2.475-5.504-3.712-9.6-3.712-4.181 0-7.424 1.237-9.728 3.712-2.219 2.475-3.328 5.973-3.328 10.496V172.5h-16Zm100.43 1.152c-5.376 0-10.069-.853-14.08-2.56-4.011-1.707-7.168-4.053-9.472-7.04-2.219-3.072-3.413-6.656-3.584-10.752h16c.171 2.219 1.237 4.011 3.2 5.376 2.048 1.365 4.693 2.048 7.936 2.048h5.632c3.925 0 6.869-.768 8.832-2.304 1.963-1.536 2.944-3.627 2.944-6.272 0-2.475-.896-4.395-2.688-5.76-1.707-1.451-4.395-2.389-8.064-2.816l-8.704-1.28c-8.021-1.109-13.909-3.243-17.664-6.4-3.755-3.157-5.632-7.893-5.632-14.208 0-6.571 2.219-11.648 6.656-15.232 4.437-3.669 10.965-5.504 19.584-5.504h4.864c7.851 0 14.123 1.749 18.816 5.248s7.211 8.192 7.552 14.08h-16c-.256-1.877-1.323-3.413-3.2-4.608-1.792-1.195-4.181-1.792-7.168-1.792h-4.864c-3.669 0-6.357.683-8.064 2.048-1.621 1.28-2.432 3.2-2.432 5.76 0 2.389.725 4.181 2.176 5.376 1.451 1.109 3.797 1.92 7.04 2.432l9.088 1.28c8.363 1.195 14.507 3.456 18.432 6.784 4.011 3.243 6.016 8.064 6.016 14.464 0 6.827-2.347 12.16-7.04 16-4.608 3.755-11.435 5.632-20.48 5.632h-5.632Zm50.766-1.152v-14.592h24.576v-41.344h-21.376V102.1h36.736v55.808h21.76V172.5h-61.696Zm30.976-82.176c-3.243 0-5.803-.81-7.68-2.432-1.877-1.707-2.816-3.968-2.816-6.784s.939-5.035 2.816-6.656c1.877-1.707 4.437-2.56 7.68-2.56 3.243 0 5.803.853 7.68 2.56 1.877 1.621 2.816 3.84 2.816 6.656s-.939 5.077-2.816 6.784c-1.877 1.621-4.437 2.432-7.68 2.432Zm45.902 105.216V102.1h15.616v13.44h3.584l-3.584 3.712c0-5.717 1.707-10.197 5.12-13.44 3.413-3.328 8.021-4.992 13.824-4.992 7.083 0 12.757 2.432 17.024 7.296 4.267 4.864 6.4 11.392 6.4 19.584v19.072c0 5.461-.981 10.24-2.944 14.336-1.877 4.011-4.565 7.125-8.064 9.344-3.499 2.219-7.637 3.328-12.416 3.328-5.803 0-10.411-1.621-13.824-4.864-3.413-3.328-5.12-7.851-5.12-13.568l3.584 3.712h-3.712l.512 16.768v19.712h-16Zm28.928-35.584c4.096 0 7.296-1.195 9.6-3.584 2.304-2.389 3.456-5.803 3.456-10.24v-17.664c0-4.437-1.152-7.851-3.456-10.24-2.304-2.389-5.504-3.584-9.6-3.584-4.011 0-7.168 1.237-9.472 3.712-2.304 2.389-3.456 5.76-3.456 10.112v17.664c0 4.352 1.152 7.765 3.456 10.24 2.304 2.389 5.461 3.584 9.472 3.584Zm47.694 12.544v-14.592h24.576v-41.344h-21.376V102.1h36.736v55.808h21.76V172.5h-61.696Zm30.976-82.176c-3.243 0-5.803-.81-7.68-2.432-1.877-1.707-2.816-3.968-2.816-6.784s.939-5.035 2.816-6.656c1.877-1.707 4.437-2.56 7.68-2.56 3.243 0 5.803.853 7.68 2.56 1.877 1.621 2.816 3.84 2.816 6.656s-.939 5.077-2.816 6.784c-1.877 1.621-4.437 2.432-7.68 2.432Zm45.902 82.176v-70.4h15.616v13.44h4.352l-4.352 3.712c0-5.803 1.664-10.325 4.992-13.568 3.413-3.243 8.064-4.864 13.952-4.864 6.912 0 12.416 2.304 16.512 6.912 4.181 4.608 6.272 10.795 6.272 18.56V172.5h-16v-44.544c0-4.267-1.109-7.552-3.328-9.856-2.219-2.304-5.333-3.456-9.344-3.456-3.925 0-7.04 1.195-9.344 3.584-2.219 2.389-3.328 5.803-3.328 10.24V172.5h-16Z"/></svg>